<svg width="23" height="23" viewBox="0 0 23 23" fill="none" xmlns="http://www.w3.org/2000/svg">
<path d="M3.59376 11.5002C3.59355 10.1123 3.95871 8.74875 4.65254 7.54668C5.34637 6.3446 6.34441 5.34636 7.54635 4.6523C8.74829 3.95823 10.1118 3.5928 11.4997 3.59275C12.8876 3.5927 14.2511 3.95802 15.4531 4.65199C15.6181 4.7458 15.8135 4.77053 15.9967 4.72081C16.1799 4.67108 16.3359 4.55092 16.4308 4.38655C16.5257 4.22218 16.5518 4.02695 16.5033 3.84345C16.4547 3.65996 16.3356 3.5031 16.1719 3.40711C14.3906 2.3787 12.3198 1.96677 10.2806 2.2352C8.24132 2.50364 6.34764 3.43745 4.8932 4.8918C3.43875 6.34615 2.50483 8.23977 2.23626 10.279C1.96769 12.3182 2.37949 14.3891 3.40779 16.1704C4.43609 17.9517 6.02342 19.344 7.92362 20.1312C9.82382 20.9185 11.9307 21.0568 13.9175 20.5246C15.9043 19.9925 17.66 18.8196 18.9123 17.188C20.1646 15.5563 20.8435 13.5571 20.8438 11.5002C20.8438 11.3096 20.768 11.1268 20.6332 10.992C20.4985 10.8572 20.3156 10.7815 20.125 10.7815C19.9344 10.7815 19.7516 10.8572 19.6168 10.992C19.482 11.1268 19.4063 11.3096 19.4063 11.5002C19.4063 13.5971 18.5733 15.6081 17.0906 17.0908C15.6079 18.5735 13.5969 19.4065 11.5 19.4065C9.40315 19.4065 7.39216 18.5735 5.90945 17.0908C4.42674 15.6081 3.59376 13.5971 3.59376 11.5002Z" fill="#FFC443"/>
<path d="M22.0714 4.82131C22.1383 4.75448 22.1913 4.67515 22.2274 4.58783C22.2636 4.50052 22.2822 4.40694 22.2822 4.31243C22.2822 4.21792 22.2636 4.12434 22.2274 4.03703C22.1913 3.94972 22.1383 3.87038 22.0714 3.80356C22.0046 3.73673 21.9253 3.68372 21.838 3.64755C21.7506 3.61139 21.6571 3.59277 21.5626 3.59277C21.468 3.59277 21.3745 3.61139 21.2872 3.64755C21.1998 3.68372 21.1205 3.73673 21.0537 3.80356L11.5001 13.3586L7.69643 9.55356C7.6296 9.48673 7.55027 9.43372 7.46296 9.39755C7.37564 9.36139 7.28206 9.34277 7.18755 9.34277C7.09305 9.34277 6.99947 9.36139 6.91215 9.39755C6.82484 9.43372 6.74551 9.48673 6.67868 9.55356C6.61185 9.62038 6.55884 9.69972 6.52268 9.78703C6.48651 9.87434 6.4679 9.96792 6.4679 10.0624C6.4679 10.1569 6.48651 10.2505 6.52268 10.3378C6.55884 10.4251 6.61185 10.5045 6.67868 10.5713L10.9912 14.8838C11.0579 14.9507 11.1373 15.0038 11.2246 15.0401C11.3119 15.0763 11.4055 15.095 11.5001 15.095C11.5946 15.095 11.6882 15.0763 11.7755 15.0401C11.8628 15.0038 11.9422 14.9507 12.0089 14.8838L22.0714 4.82131Z" fill="#FFC443"/>
</svg>
