<svg width="241" height="47" viewBox="0 0 241 47" fill="none" xmlns="http://www.w3.org/2000/svg">
<path d="M62.3071 16.4693H56.0469V33.0058H59.8266V27.8086H62.3071C65.5672 27.8086 68.0949 25.2809 68.0949 22.1389C68.0949 18.997 65.5672 16.4693 62.3071 16.4693ZM62.3071 24.2651H59.8266V20.0128H62.3071C63.4647 20.0128 64.3151 20.9341 64.3151 22.1389C64.3151 23.3437 63.4647 24.2651 62.3071 24.2651Z" fill="#1D1D1D"/>
<path d="M74.942 29.3677V16.4693H71.1623V33.0058H80.8479V29.3677H74.942Z" fill="#1D1D1D"/>
<path d="M94.6677 33.0058H98.8018L93.1794 16.4693H88.3602L82.7378 33.0058H86.8719L87.6988 30.4072H93.8409L94.6677 33.0058ZM88.8327 26.8636L90.7698 20.7924L92.707 26.8636H88.8327Z" fill="#1D1D1D"/>
<path d="M110.606 16.4693V25.4462L104.228 16.4693H101.393V33.0058H105.173V24.0288L111.551 33.0058H114.386V16.4693H110.606Z" fill="#1D1D1D"/>
<path d="M126.29 33.3365C131.039 33.3365 134.889 29.604 134.889 24.7375C134.889 19.8711 131.039 16.1385 126.29 16.1385C121.542 16.1385 117.691 19.8711 117.691 24.7375C117.691 29.604 121.542 33.3365 126.29 33.3365ZM126.29 29.6512C123.597 29.6512 121.471 27.6905 121.471 24.7375C121.471 21.7846 123.597 19.8238 126.29 19.8238C128.984 19.8238 131.11 21.7846 131.11 24.7375C131.11 27.6905 128.984 29.6512 126.29 29.6512Z" fill="#1D1D1D"/>
<path d="M154.735 16.4693H150.955L146.467 23.8162L141.979 16.4693H138.199V33.0058H141.979V23.391L146.254 30.4072H146.68L150.955 23.391V33.0058H154.735V16.4693Z" fill="#1D1D1D"/>
<path d="M162.538 29.3677V26.4384H168.444V22.8476H162.538V20.1073H169.035V16.4693H158.759V33.0058H169.153V29.3677H162.538Z" fill="#1D1D1D"/>
<path d="M183.57 16.4693H171.286V20.1073H175.538V33.0058H179.318V20.1073H183.57V16.4693Z" fill="#1D1D1D"/>
<path d="M195.099 33.0058H199.162L195.642 26.9345C197.461 26.0132 198.69 24.1706 198.69 22.1389C198.69 18.997 196.162 16.4693 193.02 16.4693H186.406V33.0058H190.185V27.5724H191.981L195.099 33.0058ZM190.185 20.0128H193.02C194.06 20.0128 194.91 20.9341 194.91 22.1389C194.91 23.3437 194.06 24.2651 193.02 24.2651H190.185V20.0128Z" fill="#1D1D1D"/>
<path d="M202.121 16.4693V33.0058H205.901V16.4693H202.121Z" fill="#1D1D1D"/>
<path d="M223.294 33.0058L217.483 24.5249L223.058 16.4693H218.758L213.703 23.6508V16.4693H209.923V33.0058H213.703V25.3517L218.994 33.0058H223.294Z" fill="#1D1D1D"/>
<path d="M236.866 33.0058H241L235.378 16.4693H230.558L224.936 33.0058H229.07L229.897 30.4072H236.039L236.866 33.0058ZM231.031 26.8636L232.968 20.7924L234.905 26.8636H231.031Z" fill="#1D1D1D"/>
<path d="M154.736 16.4694H150.956L146.467 23.8163L141.979 16.4694H138.199V33.0059H141.979V23.3911L146.255 30.4073H146.68L150.956 23.3911V33.0059H154.736V16.4694Z" fill="#FFC443"/>
<path d="M162.539 29.3678V26.4385H168.445V22.8477H162.539V20.1074H169.035V16.4694H158.759V33.0059H169.153V29.3678H162.539Z" fill="#FFC443"/>
<path d="M183.57 16.4694H171.286V20.1074H175.538V33.0059H179.318V20.1074H183.57V16.4694Z" fill="#FFC443"/>
<path d="M195.1 33.0059H199.163L195.643 26.9346C197.462 26.0133 198.69 24.1706 198.69 22.139C198.69 18.9971 196.163 16.4694 193.021 16.4694H186.406V33.0059H190.186V27.5724H191.981L195.1 33.0059ZM190.186 20.0129H193.021C194.06 20.0129 194.911 20.9342 194.911 22.139C194.911 23.3438 194.06 24.2651 193.021 24.2651H190.186V20.0129Z" fill="#FFC443"/>
<path d="M202.121 16.4694V33.0059H205.901V16.4694H202.121Z" fill="#FFC443"/>
<path d="M223.294 33.0059L217.483 24.525L223.058 16.4694H218.759L213.703 23.6509V16.4694H209.923V33.0059H213.703V25.3518L218.995 33.0059H223.294Z" fill="#FFC443"/>
<path d="M236.866 33.0059H241L235.378 16.4694H230.559L224.936 33.0059H229.071L229.897 30.4073H236.04L236.866 33.0059ZM231.031 26.8637L232.968 20.7925L234.906 26.8637H231.031Z" fill="#FFC443"/>
<path d="M2.80078 20.9054V9.70221H14.004V2H39.2112V33.509L28.008 44.7122H2.80078V39.1106" stroke="#1D1D1D" stroke-width="2.8008"/>
<path d="M3.501 35.4823H1.26036V25.6795C1.42841 25.6795 1.89988 25.6748 2.67477 25.6655C3.45899 25.6561 3.98648 25.6515 4.25722 25.6515C5.64829 25.6515 6.65658 25.9596 7.28209 26.5757C7.9076 27.1826 8.22036 27.9575 8.22036 28.9004C8.22036 29.8153 7.88893 30.5949 7.22607 31.2391C6.56322 31.8739 5.68563 32.1914 4.59332 32.1914C4.09851 32.1914 3.7344 32.1774 3.501 32.1493V35.4823ZM4.48129 27.7521C4.44394 27.7521 4.11718 27.7614 3.501 27.7801V30.0207C3.85577 30.0674 4.19654 30.0908 4.5233 30.0908C4.87807 30.0908 5.18615 29.9974 5.44756 29.8107C5.70897 29.624 5.83967 29.3159 5.83967 28.8864C5.83967 28.1302 5.38688 27.7521 4.48129 27.7521Z" fill="#1D1D1D"/>
</svg>
