<svg width="15" height="15" viewBox="0 0 15 15" fill="none" xmlns="http://www.w3.org/2000/svg">
<path d="M9.90234 10.7227C10.2259 10.7227 10.4883 10.4603 10.4883 10.1367C10.4883 9.81311 10.2259 9.55078 9.90234 9.55078C9.57874 9.55078 9.31641 9.81311 9.31641 10.1367C9.31641 10.4603 9.57874 10.7227 9.90234 10.7227Z" fill="#1D1D1D"/>
<path d="M6.97263 13.8281H2.34374C1.69757 13.8281 1.17187 13.3024 1.17187 12.6562V7.85153C1.17187 7.20536 1.69757 6.67966 2.34374 6.67966H10.7812C11.4274 6.67966 11.9531 7.20536 11.9531 7.85153V9.0234C11.9531 9.34701 12.2154 9.60934 12.539 9.60934C12.8626 9.60934 13.1249 9.34701 13.1249 9.0234V7.85153C13.1249 6.55919 12.0735 5.50779 10.7812 5.50779H10.077V3.44137C10.077 1.54379 8.4999 0 6.56139 0C4.62288 0 3.04578 1.54379 3.04578 3.44137V5.50779H2.34374C1.0514 5.50779 0 6.55919 0 7.85153V12.6562C0 13.9485 1.0514 14.9999 2.34374 14.9999H6.97263C7.29624 14.9999 7.55856 14.7376 7.55856 14.414C7.55856 14.0904 7.29624 13.8281 6.97263 13.8281ZM4.21765 3.44137C4.21765 2.18996 5.26905 1.17187 6.56139 1.17187C7.85373 1.17187 8.90513 2.18996 8.90513 3.44137V5.50779H4.21765V3.44137Z" fill="#1D1D1D"/>
<path d="M14.7552 9.54317C14.4921 9.35476 14.126 9.41537 13.9377 9.67852L11.0496 13.7127C10.9707 13.8042 10.8719 13.8239 10.8189 13.8274C10.7646 13.831 10.66 13.8241 10.5679 13.7377L8.70148 11.9163C8.46986 11.6903 8.0989 11.6949 7.87291 11.9264C7.64688 12.158 7.65139 12.529 7.88301 12.755L9.75274 14.5796C9.7545 14.5813 9.75623 14.583 9.75801 14.5847C10.0383 14.8516 10.4124 15 10.7974 15C10.8305 15 10.8636 14.9989 10.8968 14.9967C11.3162 14.9688 11.7077 14.7648 11.971 14.4372C11.9778 14.4287 11.9844 14.4201 11.9907 14.4113L14.8906 10.3607C15.0789 10.0975 15.0183 9.73151 14.7552 9.54317Z" fill="#1D1D1D"/>
<path d="M7.67578 10.7227C7.99939 10.7227 8.26172 10.4603 8.26172 10.1367C8.26172 9.81311 7.99939 9.55078 7.67578 9.55078C7.35218 9.55078 7.08984 9.81311 7.08984 10.1367C7.08984 10.4603 7.35218 10.7227 7.67578 10.7227Z" fill="#1D1D1D"/>
<path d="M3.28125 10.7227C3.60485 10.7227 3.86719 10.4603 3.86719 10.1367C3.86719 9.81311 3.60485 9.55078 3.28125 9.55078C2.95765 9.55078 2.69531 9.81311 2.69531 10.1367C2.69531 10.4603 2.95765 10.7227 3.28125 10.7227Z" fill="#1D1D1D"/>
<path d="M5.47852 10.7227C5.80212 10.7227 6.06445 10.4603 6.06445 10.1367C6.06445 9.81311 5.80212 9.55078 5.47852 9.55078C5.15491 9.55078 4.89258 9.81311 4.89258 10.1367C4.89258 10.4603 5.15491 10.7227 5.47852 10.7227Z" fill="#1D1D1D"/>
</svg>
