<svg width="15" height="15" viewBox="0 0 15 15" fill="none" xmlns="http://www.w3.org/2000/svg">
<path d="M6.875 5.625H9.375C9.54076 5.625 9.69973 5.55915 9.81694 5.44194C9.93415 5.32473 10 5.16576 10 5C10 4.83424 9.93415 4.67527 9.81694 4.55806C9.69973 4.44085 9.54076 4.375 9.375 4.375H8.125V3.75C8.125 3.58424 8.05915 3.42527 7.94194 3.30806C7.82473 3.19085 7.66576 3.125 7.5 3.125C7.33424 3.125 7.17527 3.19085 7.05806 3.30806C6.94085 3.42527 6.875 3.58424 6.875 3.75V4.375C6.37772 4.375 5.90081 4.57254 5.54917 4.92418C5.19754 5.27581 5 5.75272 5 6.25C5 6.74728 5.19754 7.2242 5.54917 7.57583C5.90081 7.92746 6.37772 8.125 6.875 8.125H8.125C8.29076 8.125 8.44973 8.19085 8.56694 8.30806C8.68415 8.42527 8.75 8.58424 8.75 8.75C8.75 8.91576 8.68415 9.07473 8.56694 9.19194C8.44973 9.30915 8.29076 9.375 8.125 9.375H5.625C5.45924 9.375 5.30027 9.44085 5.18306 9.55806C5.06585 9.67527 5 9.83424 5 10C5 10.1658 5.06585 10.3247 5.18306 10.4419C5.30027 10.5592 5.45924 10.625 5.625 10.625H6.875V11.25C6.875 11.4158 6.94085 11.5747 7.05806 11.6919C7.17527 11.8092 7.33424 11.875 7.5 11.875C7.66576 11.875 7.82473 11.8092 7.94194 11.6919C8.05915 11.5747 8.125 11.4158 8.125 11.25V10.625C8.62228 10.625 9.0992 10.4275 9.45083 10.0758C9.80246 9.7242 10 9.24728 10 8.75C10 8.25272 9.80246 7.77581 9.45083 7.42418C9.0992 7.07254 8.62228 6.875 8.125 6.875H6.875C6.70924 6.875 6.55027 6.80915 6.43306 6.69194C6.31585 6.57473 6.25 6.41576 6.25 6.25C6.25 6.08424 6.31585 5.92527 6.43306 5.80806C6.55027 5.69085 6.70924 5.625 6.875 5.625ZM11.875 1.25H3.125C2.62772 1.25 2.15081 1.44754 1.79917 1.79917C1.44754 2.15081 1.25 2.62772 1.25 3.125V11.875C1.25 12.3723 1.44754 12.8492 1.79917 13.2008C2.15081 13.5525 2.62772 13.75 3.125 13.75H11.875C12.3723 13.75 12.8492 13.5525 13.2008 13.2008C13.5525 12.8492 13.75 12.3723 13.75 11.875V3.125C13.75 2.62772 13.5525 2.15081 13.2008 1.79917C12.8492 1.44754 12.3723 1.25 11.875 1.25ZM12.5 11.875C12.5 12.0408 12.4342 12.1997 12.3169 12.3169C12.1997 12.4342 12.0408 12.5 11.875 12.5H3.125C2.95924 12.5 2.80027 12.4342 2.68306 12.3169C2.56585 12.1997 2.5 12.0408 2.5 11.875V3.125C2.5 2.95924 2.56585 2.80027 2.68306 2.68306C2.80027 2.56585 2.95924 2.5 3.125 2.5H11.875C12.0408 2.5 12.1997 2.56585 12.3169 2.68306C12.4342 2.80027 12.5 2.95924 12.5 3.125V11.875Z" fill="#1D1D1D"/>
</svg>
