<svg width="13" height="13" viewBox="0 0 13 13" fill="none" xmlns="http://www.w3.org/2000/svg">
<path d="M8.81881 6.94377C9.43155 6.46168 9.8788 5.80059 10.0983 5.05248C10.3179 4.30437 10.2988 3.50643 10.0437 2.76968C9.78859 2.03294 9.31022 1.39401 8.6751 0.941802C8.03999 0.489591 7.27972 0.246582 6.50006 0.246582C5.7204 0.246582 4.96013 0.489591 4.32502 0.941802C3.6899 1.39401 3.21152 2.03294 2.95644 2.76968C2.70136 3.50643 2.68225 4.30437 2.90178 5.05248C3.12132 5.80059 3.56856 6.46168 4.18131 6.94377C3.13136 7.36442 2.21524 8.06211 1.53062 8.96246C0.845995 9.86282 0.418536 10.9321 0.293809 12.0563C0.284781 12.1383 0.292007 12.2214 0.315075 12.3007C0.338143 12.38 0.376601 12.4539 0.428254 12.5183C0.532571 12.6484 0.684299 12.7318 0.850059 12.75C1.01582 12.7683 1.18203 12.7199 1.31214 12.6156C1.44224 12.5113 1.52558 12.3595 1.54381 12.1938C1.68105 10.972 2.26361 9.84365 3.1802 9.02426C4.09678 8.20487 5.28312 7.75191 6.51256 7.75191C7.742 7.75191 8.92834 8.20487 9.84492 9.02426C10.7615 9.84365 11.3441 10.972 11.4813 12.1938C11.4983 12.3473 11.5716 12.4892 11.687 12.5919C11.8024 12.6946 11.9518 12.751 12.1063 12.75H12.1751C12.3389 12.7312 12.4886 12.6483 12.5917 12.5195C12.6947 12.3908 12.7426 12.2265 12.7251 12.0625C12.5997 10.9351 12.17 9.86313 11.4818 8.96139C10.7937 8.05966 9.87313 7.36219 8.81881 6.94377ZM6.50006 6.50002C6.00561 6.50002 5.52226 6.35339 5.11113 6.07869C4.70001 5.80399 4.37958 5.41354 4.19036 4.95673C4.00114 4.49991 3.95163 3.99724 4.0481 3.51229C4.14456 3.02734 4.38266 2.58188 4.73229 2.23225C5.08192 1.88262 5.52738 1.64452 6.01233 1.54805C6.49729 1.45159 6.99995 1.5011 7.45677 1.69032C7.91358 1.87954 8.30403 2.19997 8.57873 2.61109C8.85344 3.02221 9.00006 3.50556 9.00006 4.00002C9.00006 4.66306 8.73667 5.29894 8.26783 5.76778C7.79899 6.23663 7.1631 6.50002 6.50006 6.50002Z" fill="#1D1D1D"/>
</svg>
