<svg width="25" height="25" viewBox="0 0 25 25" fill="none" xmlns="http://www.w3.org/2000/svg">
<path fill-rule="evenodd" clip-rule="evenodd" d="M18.1314 1.00012C17.3985 1.00012 16.7931 1.29998 16.2201 1.7275C15.6772 2.13253 15.0744 2.72201 14.3516 3.42891L8.11521 9.52716C7.63632 9.99469 7.25766 10.3644 7.02543 10.8368C6.7932 11.3093 6.73455 11.8294 6.66037 12.4871L6.64024 12.6649C6.50149 13.8857 6.38713 14.8919 6.4133 15.6845C6.44068 16.5135 6.62388 17.2728 7.23079 17.8663C7.8377 18.4598 8.61421 18.6389 9.46195 18.6657C10.2725 18.6913 11.3015 18.5795 12.5499 18.4438L12.7318 18.4241C13.4043 18.3516 13.9362 18.2942 14.4194 18.0671C14.9025 17.8401 15.2806 17.4698 15.7587 17.0015L21.9949 10.9032C22.7179 10.1963 23.3207 9.60685 23.7349 9.07598C24.1721 8.51565 24.4787 7.92363 24.4787 7.20694C24.4787 6.49025 24.1721 5.89824 23.7349 5.33791C23.3207 4.80704 22.7179 4.21761 21.9949 3.51074L21.9113 3.42895C21.1884 2.72203 20.5856 2.13254 20.0428 1.7275C19.4697 1.29998 18.8643 1.00012 18.1314 1.00012ZM21.3482 9.17242L16.1215 4.06133C16.583 3.61665 16.94 3.28964 17.2554 3.05436C17.6766 2.74012 17.9217 2.66909 18.1314 2.66909C18.3411 2.66909 18.5863 2.74012 19.0075 3.05437C19.4484 3.38331 19.9706 3.89153 20.7463 4.64997C21.5219 5.40842 22.0416 5.91915 22.378 6.35027C22.6993 6.76215 22.772 7.00189 22.772 7.20694C22.772 7.412 22.6993 7.65174 22.378 8.06361C22.1374 8.37198 21.803 8.72108 21.3482 9.17242ZM14.9131 5.24004L20.1428 10.354L14.6341 15.7408C14.0339 16.3277 13.8681 16.4745 13.68 16.5629C13.492 16.6513 13.2711 16.6862 12.4276 16.7778C11.0963 16.9225 10.1903 17.0189 9.51703 16.9976C8.86668 16.9771 8.60412 16.849 8.43764 16.6862C8.27116 16.5234 8.14016 16.2666 8.11916 15.6307C8.09742 14.9723 8.19598 14.0863 8.34389 12.7845C8.43762 11.9597 8.47334 11.7437 8.56372 11.5598C8.65411 11.3759 8.80424 11.2137 9.40438 10.6269L14.9131 5.24004Z" fill="#1D1D1D"/>
<path d="M9.34892 3.98031C9.82019 3.97478 10.1976 3.59672 10.192 3.13588C10.1863 2.67504 9.79973 2.30593 9.32846 2.31146C6.5675 2.34382 4.67238 2.49155 3.21743 3.52523C2.66201 3.91984 2.17356 4.39748 1.77002 4.94061C1.10345 5.83777 0.804972 6.88853 0.661289 8.18536C0.520491 9.45616 0.520499 11.0579 0.520508 13.1013V13.202C0.520499 15.2455 0.520491 16.8472 0.661289 18.118C0.804972 19.4149 1.10345 20.4656 1.77002 21.3628C2.17356 21.9059 2.66201 22.3835 3.21743 22.7781C4.13489 23.43 5.20943 23.7218 6.53562 23.8623C7.83515 24 9.47314 24 11.5627 24H11.6659C13.7555 24 15.3935 24 16.6931 23.8623C18.0193 23.7218 19.0938 23.43 20.0113 22.7781C20.5667 22.3835 21.0551 21.9059 21.4587 21.3628C22.5158 19.94 22.6668 18.0868 22.6999 15.387C22.7056 14.9261 22.3281 14.5481 21.8568 14.5426C21.3856 14.537 20.999 14.9061 20.9933 15.367C20.9592 18.1495 20.7676 19.4534 20.0779 20.3818C19.7796 20.7832 19.4186 21.1362 19.0081 21.4279C18.43 21.8386 17.6902 22.078 16.5092 22.2031C15.3123 22.3299 13.7666 22.331 11.6143 22.331C9.46206 22.331 7.91639 22.3299 6.71945 22.2031C5.53849 22.078 4.79865 21.8386 4.22063 21.4279C3.8101 21.1363 3.44907 20.7832 3.1508 20.3818C2.73085 19.8165 2.48605 19.0931 2.3581 17.9382C2.22842 16.7678 2.22725 15.2563 2.22725 13.1517C2.22725 11.047 2.22842 9.53558 2.3581 8.36513C2.48605 7.2103 2.73085 6.48684 3.1508 5.92161C3.44907 5.52016 3.8101 5.16713 4.22063 4.87546C5.16998 4.20098 6.50343 4.01366 9.34892 3.98031Z" fill="#1D1D1D"/>
<path fill-rule="evenodd" clip-rule="evenodd" d="M18.1314 1.00012C17.3985 1.00012 16.7931 1.29998 16.2201 1.7275C15.6772 2.13253 15.0744 2.72201 14.3516 3.42891L8.11521 9.52716C7.63632 9.99469 7.25766 10.3644 7.02543 10.8368C6.7932 11.3093 6.73455 11.8294 6.66037 12.4871L6.64024 12.6649C6.50149 13.8857 6.38713 14.8919 6.4133 15.6845C6.44068 16.5135 6.62388 17.2728 7.23079 17.8663C7.8377 18.4598 8.61421 18.6389 9.46195 18.6657C10.2725 18.6913 11.3015 18.5795 12.5499 18.4438L12.7318 18.4241C13.4043 18.3516 13.9362 18.2942 14.4194 18.0671C14.9025 17.8401 15.2806 17.4698 15.7587 17.0015L21.9949 10.9032C22.7179 10.1963 23.3207 9.60685 23.7349 9.07598C24.1721 8.51565 24.4787 7.92363 24.4787 7.20694C24.4787 6.49025 24.1721 5.89824 23.7349 5.33791C23.3207 4.80704 22.7179 4.21761 21.9949 3.51074L21.9113 3.42895C21.1884 2.72203 20.5856 2.13254 20.0428 1.7275C19.4697 1.29998 18.8643 1.00012 18.1314 1.00012ZM21.3482 9.17242L16.1215 4.06133C16.583 3.61665 16.94 3.28964 17.2554 3.05436C17.6766 2.74012 17.9217 2.66909 18.1314 2.66909C18.3411 2.66909 18.5863 2.74012 19.0075 3.05437C19.4484 3.38331 19.9706 3.89153 20.7463 4.64997C21.5219 5.40842 22.0416 5.91915 22.378 6.35027C22.6993 6.76215 22.772 7.00189 22.772 7.20694C22.772 7.412 22.6993 7.65174 22.378 8.06361C22.1374 8.37198 21.803 8.72108 21.3482 9.17242ZM14.9131 5.24004L20.1428 10.354L14.6341 15.7408C14.0339 16.3277 13.8681 16.4745 13.68 16.5629C13.492 16.6513 13.2711 16.6862 12.4276 16.7778C11.0963 16.9225 10.1903 17.0189 9.51703 16.9976C8.86668 16.9771 8.60412 16.849 8.43764 16.6862C8.27116 16.5234 8.14016 16.2666 8.11916 15.6307C8.09742 14.9723 8.19598 14.0863 8.34389 12.7845C8.43762 11.9597 8.47334 11.7437 8.56372 11.5598C8.65411 11.3759 8.80424 11.2137 9.40438 10.6269L14.9131 5.24004Z" stroke="#1D1D1D" stroke-width="0.479164" stroke-linecap="round"/>
<path d="M9.34892 3.98031C9.82019 3.97478 10.1976 3.59672 10.192 3.13588C10.1863 2.67504 9.79973 2.30593 9.32846 2.31146C6.5675 2.34382 4.67238 2.49155 3.21743 3.52523C2.66201 3.91984 2.17356 4.39748 1.77002 4.94061C1.10345 5.83777 0.804972 6.88853 0.661289 8.18536C0.520491 9.45616 0.520499 11.0579 0.520508 13.1013V13.202C0.520499 15.2455 0.520491 16.8472 0.661289 18.118C0.804972 19.4149 1.10345 20.4656 1.77002 21.3628C2.17356 21.9059 2.66201 22.3835 3.21743 22.7781C4.13489 23.43 5.20943 23.7218 6.53562 23.8623C7.83515 24 9.47314 24 11.5627 24H11.6659C13.7555 24 15.3935 24 16.6931 23.8623C18.0193 23.7218 19.0938 23.43 20.0113 22.7781C20.5667 22.3835 21.0551 21.9059 21.4587 21.3628C22.5158 19.94 22.6668 18.0868 22.6999 15.387C22.7056 14.9261 22.3281 14.5481 21.8568 14.5426C21.3856 14.537 20.999 14.9061 20.9933 15.367C20.9592 18.1495 20.7676 19.4534 20.0779 20.3818C19.7796 20.7832 19.4186 21.1362 19.0081 21.4279C18.43 21.8386 17.6902 22.078 16.5092 22.2031C15.3123 22.3299 13.7666 22.331 11.6143 22.331C9.46206 22.331 7.91639 22.3299 6.71945 22.2031C5.53849 22.078 4.79865 21.8386 4.22063 21.4279C3.8101 21.1363 3.44907 20.7832 3.1508 20.3818C2.73085 19.8165 2.48605 19.0931 2.3581 17.9382C2.22842 16.7678 2.22725 15.2563 2.22725 13.1517C2.22725 11.047 2.22842 9.53558 2.3581 8.36513C2.48605 7.2103 2.73085 6.48684 3.1508 5.92161C3.44907 5.52016 3.8101 5.16713 4.22063 4.87546C5.16998 4.20098 6.50343 4.01366 9.34892 3.98031Z" stroke="#1D1D1D" stroke-width="0.479164" stroke-linecap="round"/>
</svg>
