<svg width="27" height="27" viewBox="0 0 27 27" fill="none" xmlns="http://www.w3.org/2000/svg">
<path d="M12.375 10.125H16.875C17.1734 10.125 17.4595 10.0065 17.6705 9.7955C17.8815 9.58452 18 9.29837 18 9C18 8.70163 17.8815 8.41548 17.6705 8.20451C17.4595 7.99353 17.1734 7.875 16.875 7.875H14.625V6.75C14.625 6.45163 14.5065 6.16548 14.2955 5.95451C14.0845 5.74353 13.7984 5.625 13.5 5.625C13.2016 5.625 12.9155 5.74353 12.7045 5.95451C12.4935 6.16548 12.375 6.45163 12.375 6.75V7.875C11.4799 7.875 10.6215 8.23058 9.98851 8.86352C9.35558 9.49645 9 10.3549 9 11.25C9 12.1451 9.35558 13.0036 9.98851 13.6365C10.6215 14.2694 11.4799 14.625 12.375 14.625H14.625C14.9234 14.625 15.2095 14.7435 15.4205 14.9545C15.6315 15.1655 15.75 15.4516 15.75 15.75C15.75 16.0484 15.6315 16.3345 15.4205 16.5455C15.2095 16.7565 14.9234 16.875 14.625 16.875H10.125C9.82663 16.875 9.54048 16.9935 9.32951 17.2045C9.11853 17.4155 9 17.7016 9 18C9 18.2984 9.11853 18.5845 9.32951 18.7955C9.54048 19.0065 9.82663 19.125 10.125 19.125H12.375V20.25C12.375 20.5484 12.4935 20.8345 12.7045 21.0455C12.9155 21.2565 13.2016 21.375 13.5 21.375C13.7984 21.375 14.0845 21.2565 14.2955 21.0455C14.5065 20.8345 14.625 20.5484 14.625 20.25V19.125C15.5201 19.125 16.3786 18.7694 17.0115 18.1365C17.6444 17.5036 18 16.6451 18 15.75C18 14.8549 17.6444 13.9965 17.0115 13.3635C16.3786 12.7306 15.5201 12.375 14.625 12.375H12.375C12.0766 12.375 11.7905 12.2565 11.5795 12.0455C11.3685 11.8345 11.25 11.5484 11.25 11.25C11.25 10.9516 11.3685 10.6655 11.5795 10.4545C11.7905 10.2435 12.0766 10.125 12.375 10.125ZM21.375 2.25H5.625C4.72989 2.25 3.87145 2.60558 3.23851 3.23851C2.60558 3.87145 2.25 4.72989 2.25 5.625V21.375C2.25 22.2701 2.60558 23.1286 3.23851 23.7615C3.87145 24.3944 4.72989 24.75 5.625 24.75H21.375C22.2701 24.75 23.1286 24.3944 23.7615 23.7615C24.3944 23.1286 24.75 22.2701 24.75 21.375V5.625C24.75 4.72989 24.3944 3.87145 23.7615 3.23851C23.1286 2.60558 22.2701 2.25 21.375 2.25ZM22.5 21.375C22.5 21.6734 22.3815 21.9595 22.1705 22.1705C21.9595 22.3815 21.6734 22.5 21.375 22.5H5.625C5.32663 22.5 5.04048 22.3815 4.82951 22.1705C4.61853 21.9595 4.5 21.6734 4.5 21.375V5.625C4.5 5.32663 4.61853 5.04048 4.82951 4.82951C5.04048 4.61853 5.32663 4.5 5.625 4.5H21.375C21.6734 4.5 21.9595 4.61853 22.1705 4.82951C22.3815 5.04048 22.5 5.32663 22.5 5.625V21.375Z" fill="#1D1D1D"/>
</svg>
