<svg width="25" height="25" viewBox="0 0 25 25" fill="none" xmlns="http://www.w3.org/2000/svg">
<path d="M19.0565 9.5516C19.3824 9.18761 19.3515 8.62835 18.9875 8.30247C18.6235 7.97659 18.0643 8.00748 17.7384 8.37148L13.7645 12.8101C12.9592 13.7095 12.417 14.312 11.9533 14.7017C11.5117 15.0729 11.2523 15.1538 11.0256 15.1538C10.799 15.1538 10.5396 15.0729 10.098 14.7017C9.63432 14.312 9.09204 13.7095 8.28681 12.8101L7.26163 11.665C6.93575 11.301 6.37649 11.2701 6.0125 11.596C5.64851 11.9219 5.61761 12.4812 5.9435 12.8452L7.01249 14.0392C7.76246 14.8769 8.38801 15.5756 8.95959 16.0561C9.56424 16.5643 10.2164 16.9231 11.0256 16.9231C11.8349 16.9231 12.487 16.5643 13.0917 16.0561C13.6633 15.5757 14.2888 14.8769 15.0388 14.0392L19.0565 9.5516Z" fill="#1D1D1D"/>
<path fill-rule="evenodd" clip-rule="evenodd" d="M17.7647 1.14594C16.4175 0.999983 14.7195 0.999991 12.5534 1H12.4466C10.2805 0.999991 8.58247 0.999983 7.23533 1.14594C5.86059 1.29488 4.74671 1.60428 3.79566 2.29526C3.2199 2.71357 2.71357 3.2199 2.29526 3.79566C1.60428 4.74671 1.29488 5.86059 1.14594 7.23533C0.999983 8.58247 0.999991 10.2805 1 12.4466V12.5534C0.999991 14.7195 0.999983 16.4175 1.14594 17.7647C1.29488 19.1394 1.60428 20.2533 2.29526 21.2043C2.71357 21.7801 3.2199 22.2864 3.79566 22.7047C4.74671 23.3957 5.8606 23.7051 7.23533 23.8541C8.58244 24 10.2804 24 12.4465 24H12.5534C14.7195 24 16.4176 24 17.7647 23.8541C19.1394 23.7051 20.2533 23.3957 21.2043 22.7047C21.7801 22.2864 22.2864 21.7801 22.7047 21.2043C23.3957 20.2533 23.7051 19.1394 23.8541 17.7647C24 16.4176 24 14.7196 24 12.5535V12.4466C24 10.2805 24 8.58244 23.8541 7.23533C23.7051 5.8606 23.3957 4.74671 22.7047 3.79566C22.2864 3.2199 21.7801 2.71357 21.2043 2.29526C20.2533 1.60428 19.1394 1.29488 17.7647 1.14594ZM4.83559 3.72659C5.43477 3.29126 6.2017 3.03751 7.4259 2.90487C8.66666 2.77045 10.2689 2.76923 12.5 2.76923C14.7311 2.76923 16.3333 2.77045 17.5741 2.90487C18.7983 3.03751 19.5652 3.29126 20.1644 3.72659C20.59 4.03578 20.9642 4.41003 21.2734 4.83559C21.7087 5.43477 21.9625 6.2017 22.0951 7.4259C22.2296 8.66666 22.2308 10.2689 22.2308 12.5C22.2308 14.7311 22.2296 16.3333 22.0951 17.5741C21.9625 18.7983 21.7087 19.5652 21.2734 20.1644C20.9642 20.59 20.59 20.9642 20.1644 21.2734C19.5652 21.7087 18.7983 21.9625 17.5741 22.0951C16.3333 22.2296 14.7311 22.2308 12.5 22.2308C10.2689 22.2308 8.66666 22.2296 7.4259 22.0951C6.2017 21.9625 5.43477 21.7087 4.83559 21.2734C4.41003 20.9642 4.03578 20.59 3.72659 20.1644C3.29126 19.5652 3.03751 18.7983 2.90487 17.5741C2.77045 16.3333 2.76923 14.7311 2.76923 12.5C2.76923 10.2689 2.77045 8.66666 2.90487 7.4259C3.03751 6.2017 3.29126 5.43477 3.72659 4.83559C4.03578 4.41003 4.41003 4.03578 4.83559 3.72659Z" fill="#1D1D1D"/>
<path d="M19.0565 9.5516C19.3824 9.18761 19.3515 8.62835 18.9875 8.30247C18.6235 7.97659 18.0643 8.00748 17.7384 8.37148L13.7645 12.8101C12.9592 13.7095 12.417 14.312 11.9533 14.7017C11.5117 15.0729 11.2523 15.1538 11.0256 15.1538C10.799 15.1538 10.5396 15.0729 10.098 14.7017C9.63432 14.312 9.09204 13.7095 8.28681 12.8101L7.26163 11.665C6.93575 11.301 6.37649 11.2701 6.0125 11.596C5.64851 11.9219 5.61761 12.4812 5.9435 12.8452L7.01249 14.0392C7.76246 14.8769 8.38801 15.5756 8.95959 16.0561C9.56424 16.5643 10.2164 16.9231 11.0256 16.9231C11.8349 16.9231 12.487 16.5643 13.0917 16.0561C13.6633 15.5757 14.2888 14.8769 15.0388 14.0392L19.0565 9.5516Z" stroke="#1D1D1D" stroke-width="0.5" stroke-linecap="round"/>
<path fill-rule="evenodd" clip-rule="evenodd" d="M17.7647 1.14594C16.4175 0.999983 14.7195 0.999991 12.5534 1H12.4466C10.2805 0.999991 8.58247 0.999983 7.23533 1.14594C5.86059 1.29488 4.74671 1.60428 3.79566 2.29526C3.2199 2.71357 2.71357 3.2199 2.29526 3.79566C1.60428 4.74671 1.29488 5.86059 1.14594 7.23533C0.999983 8.58247 0.999991 10.2805 1 12.4466V12.5534C0.999991 14.7195 0.999983 16.4175 1.14594 17.7647C1.29488 19.1394 1.60428 20.2533 2.29526 21.2043C2.71357 21.7801 3.2199 22.2864 3.79566 22.7047C4.74671 23.3957 5.8606 23.7051 7.23533 23.8541C8.58244 24 10.2804 24 12.4465 24H12.5534C14.7195 24 16.4176 24 17.7647 23.8541C19.1394 23.7051 20.2533 23.3957 21.2043 22.7047C21.7801 22.2864 22.2864 21.7801 22.7047 21.2043C23.3957 20.2533 23.7051 19.1394 23.8541 17.7647C24 16.4176 24 14.7196 24 12.5535V12.4466C24 10.2805 24 8.58244 23.8541 7.23533C23.7051 5.8606 23.3957 4.74671 22.7047 3.79566C22.2864 3.2199 21.7801 2.71357 21.2043 2.29526C20.2533 1.60428 19.1394 1.29488 17.7647 1.14594ZM4.83559 3.72659C5.43477 3.29126 6.2017 3.03751 7.4259 2.90487C8.66666 2.77045 10.2689 2.76923 12.5 2.76923C14.7311 2.76923 16.3333 2.77045 17.5741 2.90487C18.7983 3.03751 19.5652 3.29126 20.1644 3.72659C20.59 4.03578 20.9642 4.41003 21.2734 4.83559C21.7087 5.43477 21.9625 6.2017 22.0951 7.4259C22.2296 8.66666 22.2308 10.2689 22.2308 12.5C22.2308 14.7311 22.2296 16.3333 22.0951 17.5741C21.9625 18.7983 21.7087 19.5652 21.2734 20.1644C20.9642 20.59 20.59 20.9642 20.1644 21.2734C19.5652 21.7087 18.7983 21.9625 17.5741 22.0951C16.3333 22.2296 14.7311 22.2308 12.5 22.2308C10.2689 22.2308 8.66666 22.2296 7.4259 22.0951C6.2017 21.9625 5.43477 21.7087 4.83559 21.2734C4.41003 20.9642 4.03578 20.59 3.72659 20.1644C3.29126 19.5652 3.03751 18.7983 2.90487 17.5741C2.77045 16.3333 2.76923 14.7311 2.76923 12.5C2.76923 10.2689 2.77045 8.66666 2.90487 7.4259C3.03751 6.2017 3.29126 5.43477 3.72659 4.83559C4.03578 4.41003 4.41003 4.03578 4.83559 3.72659Z" stroke="#1D1D1D" stroke-width="0.5" stroke-linecap="round"/>
</svg>
