<svg width="27" height="27" viewBox="0 0 27 27" fill="none" xmlns="http://www.w3.org/2000/svg">
<path d="M23.1859 21.5887C23.8909 20.6437 24.3748 19.5523 24.6017 18.3953C24.8286 17.2383 24.7928 16.0451 24.4969 14.9037C24.201 13.7624 23.6527 12.702 22.8922 11.8009C22.1318 10.8998 21.1788 10.181 20.1034 9.69747C19.8692 8.34983 19.3308 7.07331 18.5293 5.96491C17.7278 4.85651 16.6842 3.94538 15.4778 3.30075C14.2713 2.65613 12.9339 2.29497 11.567 2.24472C10.2 2.19447 8.83965 2.45646 7.58915 3.01076C6.33866 3.56507 5.23097 4.39711 4.35023 5.44368C3.4695 6.49024 2.8389 7.72379 2.50636 9.05059C2.17381 10.3774 2.14806 11.7625 2.43108 13.1008C2.71409 14.439 3.29841 15.6951 4.13964 16.7737L2.57589 18.3262C2.41979 18.4844 2.31404 18.6853 2.27199 18.9036C2.22995 19.1218 2.25349 19.3476 2.33964 19.5525C2.42404 19.7579 2.56736 19.9338 2.75154 20.0579C2.93573 20.182 3.15254 20.2489 3.37464 20.25H9.77589C10.4134 21.5939 11.4184 22.7298 12.6747 23.5262C13.931 24.3226 15.3872 24.7469 16.8746 24.75H23.6246C23.8467 24.7489 24.0635 24.682 24.2477 24.5579C24.4319 24.4338 24.5752 24.2579 24.6596 24.0525C24.7458 23.8476 24.7693 23.6218 24.7273 23.4036C24.6852 23.1853 24.5795 22.9844 24.4234 22.8262L23.1859 21.5887ZM8.99964 16.875C9.00118 17.2517 9.03127 17.6278 9.08964 18H6.08589L6.47964 17.6175C6.58508 17.5129 6.66878 17.3885 6.72589 17.2514C6.78301 17.1143 6.81241 16.9672 6.81241 16.8187C6.81241 16.6702 6.78301 16.5232 6.72589 16.3861C6.66878 16.249 6.58508 16.1246 6.47964 16.02C5.84914 15.3964 5.3493 14.6534 5.00932 13.8343C4.66935 13.0153 4.49608 12.1367 4.49964 11.25C4.49964 9.45976 5.2108 7.74287 6.47667 6.477C7.74254 5.21113 9.45943 4.49997 11.2496 4.49997C12.6465 4.49157 14.0109 4.92115 15.1511 5.72832C16.2912 6.53548 17.1497 7.67964 17.6059 8.99997C17.3584 8.99997 17.1221 8.99997 16.8746 8.99997C14.7861 8.99997 12.783 9.82965 11.3062 11.3065C9.82932 12.7834 8.99964 14.7864 8.99964 16.875ZM20.8571 22.5L20.9134 22.5562H16.8746C15.5734 22.5539 14.3132 22.1005 13.3087 21.2733C12.3043 20.446 11.6177 19.2961 11.366 18.0195C11.1142 16.7428 11.3129 15.4184 11.9281 14.2717C12.5433 13.1251 13.5371 12.2273 14.74 11.7311C15.943 11.235 17.2807 11.1713 18.5254 11.5508C19.77 11.9304 20.8446 12.7297 21.566 13.8127C22.2875 14.8956 22.6111 16.1952 22.4819 17.49C22.3526 18.7848 21.7784 19.9948 20.8571 20.9137C20.6452 21.1214 20.5239 21.4045 20.5196 21.7012C20.5203 21.8501 20.5504 21.9973 20.6083 22.1344C20.6663 22.2715 20.7508 22.3958 20.8571 22.5Z" fill="#1D1D1D"/>
</svg>
