<svg width="29" height="14" viewBox="0 0 29 14" fill="none" xmlns="http://www.w3.org/2000/svg">
<path fill-rule="evenodd" clip-rule="evenodd" d="M7.03998 0.39967C7.33288 0.106777 7.80775 0.106777 8.10064 0.39967C8.39354 0.692563 8.39354 1.16744 8.10064 1.46033L3.31097 6.25L28 6.25C28.4142 6.25 28.75 6.58579 28.75 7C28.75 7.41421 28.4142 7.75 28 7.75L3.31098 7.75L8.10064 12.5397C8.39354 12.8326 8.39354 13.3074 8.10064 13.6003C7.80775 13.8932 7.33288 13.8932 7.03998 13.6003L0.969982 7.53033C0.82933 7.38968 0.750313 7.19891 0.750313 7C0.750313 6.80109 0.82933 6.61032 0.969982 6.46967L7.03998 0.39967Z" fill="#15162F" fill-opacity="0.5"/>
</svg>
