<svg width="35" height="35" viewBox="0 0 35 35" fill="none" xmlns="http://www.w3.org/2000/svg">
<path d="M11.6678 32.0833H23.3345C29.197 32.0833 30.247 29.7354 30.5533 26.8771L31.647 15.2104C32.0408 11.6521 31.0199 8.75 24.7928 8.75H10.2095C3.98242 8.75 2.96159 11.6521 3.35534 15.2104L4.44909 26.8771C4.75534 29.7354 5.80534 32.0833 11.6678 32.0833Z" stroke="white" stroke-width="2.5" stroke-miterlimit="10" stroke-linecap="round" stroke-linejoin="round"/>
<path d="M11.666 8.74935V7.58268C11.666 5.00143 11.666 2.91602 16.3327 2.91602H18.666C23.3327 2.91602 23.3327 5.00143 23.3327 7.58268V8.74935" stroke="white" stroke-width="2.5" stroke-miterlimit="10" stroke-linecap="round" stroke-linejoin="round"/>
<path d="M20.4173 18.9583V20.4167C20.4173 20.4313 20.4173 20.4313 20.4173 20.4458C20.4173 22.0354 20.4027 23.3333 17.5007 23.3333C14.6132 23.3333 14.584 22.05 14.584 20.4604V18.9583C14.584 17.5 14.584 17.5 16.0423 17.5H18.959C20.4173 17.5 20.4173 17.5 20.4173 18.9583Z" stroke="white" stroke-width="2.5" stroke-miterlimit="10" stroke-linecap="round" stroke-linejoin="round"/>
<path d="M31.5723 16.041C28.2035 18.491 24.3535 19.9493 20.416 20.4452" stroke="white" stroke-width="2.5" stroke-miterlimit="10" stroke-linecap="round" stroke-linejoin="round"/>
<path d="M3.82031 16.4355C7.10156 18.6814 10.8057 20.0376 14.5828 20.4605" stroke="white" stroke-width="2.5" stroke-miterlimit="10" stroke-linecap="round" stroke-linejoin="round"/>
</svg>
