<svg width="44" height="44" viewBox="0 0 44 44" fill="none" xmlns="http://www.w3.org/2000/svg">
<path d="M33.0002 5.5H11.0002C8.97512 5.5 7.3335 7.14162 7.3335 9.16667V34.8333C7.3335 36.8584 8.97512 38.5 11.0002 38.5H33.0002C35.0252 38.5 36.6668 36.8584 36.6668 34.8333V9.16667C36.6668 7.14162 35.0252 5.5 33.0002 5.5Z" stroke="white" stroke-width="2.5" stroke-linecap="round" stroke-linejoin="round"/>
<path d="M27.4998 12.8333H16.4998C15.4873 12.8333 14.6665 13.6541 14.6665 14.6666V16.4999C14.6665 17.5124 15.4873 18.3333 16.4998 18.3333H27.4998C28.5124 18.3333 29.3332 17.5124 29.3332 16.4999V14.6666C29.3332 13.6541 28.5124 12.8333 27.4998 12.8333Z" stroke="white" stroke-width="2.5" stroke-linecap="round" stroke-linejoin="round"/>
<path d="M14.6665 25.6667V25.6851" stroke="white" stroke-width="3.5" stroke-linecap="round" stroke-linejoin="round"/>
<path d="M22 25.6667V25.6851" stroke="white" stroke-width="3.5" stroke-linecap="round" stroke-linejoin="round"/>
<path d="M29.3335 25.6667V25.6851" stroke="white" stroke-width="3.5" stroke-linecap="round" stroke-linejoin="round"/>
<path d="M14.6665 31.1667V31.1851" stroke="white" stroke-width="3.5" stroke-linecap="round" stroke-linejoin="round"/>
<path d="M22 31.1667V31.1851" stroke="white" stroke-width="3.5" stroke-linecap="round" stroke-linejoin="round"/>
<path d="M29.3335 31.1667V31.1851" stroke="white" stroke-width="3.5" stroke-linecap="round" stroke-linejoin="round"/>
</svg>
