<svg width="30" height="30" viewBox="0 0 30 30" fill="none" xmlns="http://www.w3.org/2000/svg">
<path d="M26.25 8.75V21.25C26.25 25 24.375 27.5 20 27.5H10C5.625 27.5 3.75 25 3.75 21.25V8.75C3.75 5 5.625 2.5 10 2.5H20C24.375 2.5 26.25 5 26.25 8.75Z" stroke="#15162F" stroke-width="1.5" stroke-miterlimit="10" stroke-linecap="round" stroke-linejoin="round"/>
<path d="M20.3125 13.75H9.6875C8.4875 13.75 7.5 12.7625 7.5 11.5625V8.4375C7.5 7.2375 8.4875 6.25 9.6875 6.25H20.3125C21.5125 6.25 22.5 7.2375 22.5 8.4375V11.5625C22.5 12.7625 21.5125 13.75 20.3125 13.75Z" stroke="#15162F" stroke-width="1.5" stroke-miterlimit="10" stroke-linecap="round" stroke-linejoin="round"/>
<path d="M11.625 19.1001L8.75 21.9751" stroke="#15162F" stroke-width="1.5" stroke-miterlimit="10" stroke-linecap="round" stroke-linejoin="round"/>
<path d="M8.78906 19.1377L11.664 22.0127" stroke="#15162F" stroke-width="1.5" stroke-miterlimit="10" stroke-linecap="round" stroke-linejoin="round"/>
<path d="M17.5 19.1626H17.525" stroke="#15162F" stroke-width="2" stroke-miterlimit="10" stroke-linecap="round" stroke-linejoin="round"/>
<path d="M21.25 19.1626H21.275" stroke="#15162F" stroke-width="2" stroke-miterlimit="10" stroke-linecap="round" stroke-linejoin="round"/>
<path d="M17.5 21.8751V21.8501" stroke="#15162F" stroke-width="2" stroke-miterlimit="10" stroke-linecap="round" stroke-linejoin="round"/>
<path d="M21.25 21.8751V21.8501" stroke="#15162F" stroke-width="2" stroke-miterlimit="10" stroke-linecap="round" stroke-linejoin="round"/>
</svg>
