<svg width="35" height="35" viewBox="0 0 35 35" fill="none" xmlns="http://www.w3.org/2000/svg">
<path d="M24.3529 27.6789H10.6445C10.032 27.6789 9.34662 27.1977 9.14245 26.6143L3.10495 9.72682C2.24454 7.30599 3.25079 6.56224 5.32162 8.04974L11.0091 12.1185C11.957 12.7747 13.0362 12.4393 13.4445 11.3747L16.0112 4.53516C16.8279 2.34766 18.1841 2.34766 19.0008 4.53516L21.5675 11.3747C21.9758 12.4393 23.055 12.7747 23.9883 12.1185L29.3258 8.31224C31.6008 6.67891 32.6945 7.51016 31.7612 10.1497L25.8695 26.6435C25.6508 27.1977 24.9654 27.6789 24.3529 27.6789Z" stroke="white" stroke-width="2.5" stroke-linecap="round" stroke-linejoin="round"/>
<path d="M9.47852 32.084H25.5202" stroke="white" stroke-width="2.5" stroke-linecap="round" stroke-linejoin="round"/>
<path d="M13.8535 20.416H21.1452" stroke="white" stroke-width="2.5" stroke-linecap="round" stroke-linejoin="round"/>
</svg>
