<svg width="35" height="35" viewBox="0 0 35 35" fill="none" xmlns="http://www.w3.org/2000/svg">
<path d="M14.584 25.5215H20.4173" stroke="white" stroke-width="2.5" stroke-linecap="round" stroke-linejoin="round"/>
<path d="M2.91602 25.5215V10.9382C2.91602 5.10482 4.37435 3.64648 10.2077 3.64648" stroke="white" stroke-width="2.5" stroke-linecap="round" stroke-linejoin="round"/>
<path d="M32.0827 25.5215V10.9382C32.0827 5.10482 30.6243 3.64648 24.791 3.64648" stroke="white" stroke-width="2.5" stroke-linecap="round" stroke-linejoin="round"/>
<path d="M14.5827 23.2005V27.9984C14.5827 30.9151 13.416 32.0818 10.4993 32.0818H6.99935C4.08268 32.0818 2.91602 30.9151 2.91602 27.9984V23.2005C2.91602 20.2839 4.08268 19.1172 6.99935 19.1172H10.4993C13.416 19.1172 14.5827 20.2839 14.5827 23.2005Z" stroke="white" stroke-width="2.5" stroke-linecap="round" stroke-linejoin="round"/>
<path d="M32.0827 23.2005V27.9984C32.0827 30.9151 30.916 32.0818 27.9994 32.0818H24.4993C21.5827 32.0818 20.416 30.9151 20.416 27.9984V23.2005C20.416 20.2839 21.5827 19.1172 24.4993 19.1172H27.9994C30.916 19.1172 32.0827 20.2839 32.0827 23.2005Z" stroke="white" stroke-width="2.5" stroke-linecap="round" stroke-linejoin="round"/>
</svg>
