<svg width="30" height="30" viewBox="0 0 30 30" fill="none" xmlns="http://www.w3.org/2000/svg">
<path d="M12.5609 3.16261L5.03594 8.07511C2.62344 9.65011 2.62344 13.1751 5.03594 14.7501L12.5609 19.6626C13.9109 20.5501 16.1359 20.5501 17.4859 19.6626L24.9734 14.7501C27.3734 13.1751 27.3734 9.66261 24.9734 8.08761L17.4859 3.17511C16.1359 2.27511 13.9109 2.27511 12.5609 3.16261Z" stroke="white" stroke-width="1.5" stroke-linecap="round" stroke-linejoin="round"/>
<path d="M7.03594 16.3501L7.02344 22.2126C7.02344 23.8001 8.24844 25.5001 9.74844 26.0001L13.7359 27.3251C14.4234 27.5501 15.5609 27.5501 16.2609 27.3251L20.2484 26.0001C21.7484 25.5001 22.9734 23.8001 22.9734 22.2126V16.4126" stroke="white" stroke-width="1.5" stroke-linecap="round" stroke-linejoin="round"/>
<path d="M26.75 18.75V11.25" stroke="white" stroke-width="1.5" stroke-linecap="round" stroke-linejoin="round"/>
</svg>
