<svg width="30" height="30" viewBox="0 0 30 30" fill="none" xmlns="http://www.w3.org/2000/svg">
<path d="M15.1484 15.9751C15.0609 15.9626 14.9484 15.9626 14.8484 15.9751C12.6484 15.9001 10.8984 14.1001 10.8984 11.8876C10.8984 9.6251 12.7234 7.7876 14.9984 7.7876C17.2609 7.7876 19.0984 9.6251 19.0984 11.8876C19.0859 14.1001 17.3484 15.9001 15.1484 15.9751Z" stroke="white" stroke-width="1.5" stroke-linecap="round" stroke-linejoin="round"/>
<path d="M23.4242 24.2252C21.1992 26.2627 18.2492 27.5002 14.9992 27.5002C11.7492 27.5002 8.79922 26.2627 6.57422 24.2252C6.69922 23.0502 7.44922 21.9002 8.78672 21.0002C12.2117 18.7252 17.8117 18.7252 21.2117 21.0002C22.5492 21.9002 23.2992 23.0502 23.4242 24.2252Z" stroke="white" stroke-width="1.5" stroke-linecap="round" stroke-linejoin="round"/>
<path d="M15 27.5C21.9036 27.5 27.5 21.9036 27.5 15C27.5 8.09644 21.9036 2.5 15 2.5C8.09644 2.5 2.5 8.09644 2.5 15C2.5 21.9036 8.09644 27.5 15 27.5Z" stroke="white" stroke-width="1.5" stroke-linecap="round" stroke-linejoin="round"/>
</svg>
