<svg width="30" height="30" viewBox="0 0 30 30" fill="none" xmlns="http://www.w3.org/2000/svg">
<path d="M10.7129 19.0876L18.8879 10.9126" stroke="white" stroke-width="1.5" stroke-linecap="round" stroke-linejoin="round"/>
<path d="M11.225 12.9627C12.0742 12.9627 12.7625 12.2743 12.7625 11.4252C12.7625 10.5761 12.0742 9.8877 11.225 9.8877C10.3759 9.8877 9.6875 10.5761 9.6875 11.4252C9.6875 12.2743 10.3759 12.9627 11.225 12.9627Z" stroke="white" stroke-width="1.5" stroke-linecap="round" stroke-linejoin="round"/>
<path d="M19.4008 20.1126C20.2499 20.1126 20.9383 19.4242 20.9383 18.5751C20.9383 17.7259 20.2499 17.0376 19.4008 17.0376C18.5516 17.0376 17.8633 17.7259 17.8633 18.5751C17.8633 19.4242 18.5516 20.1126 19.4008 20.1126Z" stroke="white" stroke-width="1.5" stroke-linecap="round" stroke-linejoin="round"/>
<path d="M15 27.5C21.9036 27.5 27.5 21.9036 27.5 15C27.5 8.09644 21.9036 2.5 15 2.5C8.09644 2.5 2.5 8.09644 2.5 15C2.5 21.9036 8.09644 27.5 15 27.5Z" stroke="white" stroke-width="1.5" stroke-linecap="round" stroke-linejoin="round"/>
</svg>
