<svg width="38" height="38" viewBox="0 0 38 38" fill="none" xmlns="http://www.w3.org/2000/svg">
<path d="M19.0396 23.2784C23.0388 23.2784 26.2807 20.0365 26.2807 16.0374C26.2807 12.0382 23.0388 8.7963 19.0396 8.7963C15.0405 8.7963 11.7986 12.0382 11.7986 16.0374C11.7986 20.0365 15.0405 23.2784 19.0396 23.2784Z" stroke="white" stroke-width="1.5" stroke-linecap="round" stroke-linejoin="round"/>
<path d="M16.1445 9.52042H16.8686C15.4566 13.7492 15.4566 18.3255 16.8686 22.5543H16.1445" stroke="white" stroke-width="1.5" stroke-linecap="round" stroke-linejoin="round"/>
<path d="M21.2124 9.52042C22.6244 13.7492 22.6244 18.3255 21.2124 22.5543" stroke="white" stroke-width="1.5" stroke-linecap="round" stroke-linejoin="round"/>
<path d="M12.5227 18.9338V18.2097C16.7515 19.6217 21.3278 19.6217 25.5566 18.2097V18.9338" stroke="white" stroke-width="1.5" stroke-linecap="round" stroke-linejoin="round"/>
<path d="M12.5227 13.865C16.7515 12.453 21.3278 12.453 25.5566 13.865" stroke="white" stroke-width="1.5" stroke-linecap="round" stroke-linejoin="round"/>
<rect x="7.03076" y="4.02911" width="24.0166" height="30.0208" rx="1" stroke="white" stroke-width="1.5"/>
<line x1="11.9851" y1="28.4966" x2="26.0959" y2="28.4966" stroke="white" stroke-width="1.5" stroke-linecap="round"/>
</svg>
