<svg width="24" height="24" viewBox="0 0 24 24" fill="none" xmlns="http://www.w3.org/2000/svg">
<path fill-rule="evenodd" clip-rule="evenodd" d="M7.00973 2.75006C7.01299 2.75002 7.01626 2.75 7.01953 2.75C7.12182 2.75 7.21933 2.77048 7.30818 2.80756C7.39661 2.84438 7.47941 2.89886 7.55118 2.971C7.58546 3.00545 7.61571 3.0424 7.64191 3.08125L11.5303 6.96967C11.8232 7.26256 11.8232 7.73744 11.5303 8.03033C11.2374 8.32322 10.7626 8.32322 10.4697 8.03033L7.76953 5.33019V20.5C7.76953 20.9142 7.43374 21.25 7.01953 21.25C6.60532 21.25 6.26953 20.9142 6.26953 20.5V5.30429L3.52852 8.03165C3.23489 8.32381 2.76002 8.32263 2.46786 8.029C2.1757 7.73538 2.17688 7.26051 2.47051 6.96835L6.37877 3.07955C6.40505 3.04082 6.43535 3.00399 6.46967 2.96967C6.61859 2.82075 6.81456 2.74755 7.00973 2.75006Z" fill="#15162F"/>
<path d="M22 12L11 12" stroke="#15162F" stroke-width="1.5" stroke-miterlimit="10" stroke-linecap="round" stroke-linejoin="round"/>
<path d="M18 16L11 16" stroke="#15162F" stroke-width="1.5" stroke-miterlimit="10" stroke-linecap="round" stroke-linejoin="round"/>
<path d="M14 20L11 20" stroke="#15162F" stroke-width="1.5" stroke-miterlimit="10" stroke-linecap="round" stroke-linejoin="round"/>
</svg>
