<svg width="16" height="5" viewBox="0 0 16 5" fill="none" xmlns="http://www.w3.org/2000/svg">
<path d="M11.6993 5C10.8975 5 10.205 4.83908 9.62187 4.51724C9.03872 4.17241 8.34624 3.67816 7.54442 3.03448C6.86409 2.45977 6.29309 2.04598 5.83143 1.7931C5.39408 1.51724 4.89598 1.37931 4.33713 1.37931C3.43812 1.37931 2.70919 1.70115 2.15034 2.34483C1.61579 2.96552 1.32422 3.8046 1.27563 4.86207H0C0.0485952 3.32184 0.461655 2.12644 1.23918 1.27586C2.0167 0.425286 3.03721 0 4.30068 0C5.10251 0 5.79499 0.172413 6.37813 0.51724C6.96128 0.839079 7.65376 1.32184 8.45558 1.96552C9.13592 2.54023 9.69476 2.96552 10.1321 3.24138C10.5938 3.49425 11.104 3.62069 11.6629 3.62069C12.5619 3.62069 13.2787 3.31034 13.8132 2.68965C14.3478 2.06896 14.6393 1.22988 14.6879 0.172413H16C15.9271 1.71264 15.5019 2.90805 14.7244 3.75862C13.9468 4.58621 12.9385 5 11.6993 5Z" fill="white"/>
</svg>
