<svg width="30" height="30" viewBox="0 0 30 30" fill="none" xmlns="http://www.w3.org/2000/svg">
<path d="M26.25 7.47559C22.0875 7.06309 17.9 6.85059 13.725 6.85059C11.25 6.85059 8.775 6.97559 6.3 7.22559L3.75 7.47559" stroke="#15162F" stroke-width="1.5" stroke-linecap="round" stroke-linejoin="round"/>
<path d="M10.625 6.2125L10.9 4.575C11.1 3.3875 11.25 2.5 13.3625 2.5H16.6375C18.75 2.5 18.9125 3.4375 19.1 4.5875L19.375 6.2125" stroke="#15162F" stroke-width="1.5" stroke-linecap="round" stroke-linejoin="round"/>
<path d="M23.563 11.4246L22.7505 24.0121C22.613 25.9746 22.5005 27.4996 19.013 27.4996H10.988C7.50049 27.4996 7.38799 25.9746 7.25049 24.0121L6.43799 11.4246" stroke="#15162F" stroke-width="1.5" stroke-linecap="round" stroke-linejoin="round"/>
<path d="M12.9126 20.625H17.0751" stroke="#15162F" stroke-width="1.5" stroke-linecap="round" stroke-linejoin="round"/>
<path d="M11.875 15.625H18.125" stroke="#15162F" stroke-width="1.5" stroke-linecap="round" stroke-linejoin="round"/>
</svg>
