<svg width="40" height="40" viewBox="0 0 40 40" fill="none" xmlns="http://www.w3.org/2000/svg">
<path d="M20.2361 32.365C27.8377 32.365 34 26.2391 34 18.6825C34 11.1259 27.8377 5 20.2361 5C12.6346 5 6.47227 11.1259 6.47227 18.6825C6.47227 21.2382 7.1771 23.6302 8.40408 25.6769L6 33L13.4828 30.6076C15.4779 31.7265 17.782 32.365 20.2361 32.365Z" fill="white" stroke="#93D087" stroke-width="2"/>
<path fill-rule="evenodd" clip-rule="evenodd" d="M18.1305 16.2696C18.1305 15.9721 17.9338 15.4763 17.8354 15.1788C17.737 14.8812 17.2452 13.3937 17.0485 13.1954C16.8226 12.8539 15.8028 13.0381 15.4422 13.1635C14.6712 13.4315 14.3781 13.8728 14.1617 14.4683C13.7128 15.7036 14.2896 18.0972 14.786 18.848C15.3667 19.7261 15.8759 20.5429 16.5566 21.3272C17.0485 21.823 17.4419 22.3188 17.9338 22.7155C19.2815 23.7345 20.7353 25.079 22.6555 24.9964C23.8956 24.943 25.1498 24.7272 25.6065 23.8064C25.8033 23.5088 26 22.8147 26 22.418C26 21.8756 24.991 21.4221 24.5779 21.1974C23.8709 20.8128 22.9591 20.4525 22.6555 20.8313C22.2799 21.3 22.2274 22.1023 21.5734 22.1205C21.0686 22.1346 20.5421 21.7494 20.0979 21.5255C19.1142 20.8313 18.1305 19.9388 17.4419 18.9471L16.9501 18.1538C16.9501 17.3279 17.945 17.0178 18.1305 16.2696Z" fill="#93D087"/>
</svg>
